{
    "asset" : {
        "generator" : "Khronos glTF Blender I/O v1.5.17",
        "version" : "2.0"
    },
    "scene" : 0,
    "scenes" : [
        {
            "name" : "Scene",
            "nodes" : [
                0,
                1,
                2,
                3
            ]
        }
    ],
    "nodes" : [
        {
            "mesh" : 0,
            "name" : "BezierCircle.001",
            "rotation" : [
                0,
                -0.7071068286895752,
                0,
                0.7071068286895752
            ],
            "translation" : [
                -0.03974045813083649,
                2.255650520324707,
                -0.03734731674194336
            ]
        },
        {
            "mesh" : 1,
            "name" : "Champagne",
            "rotation" : [
                0,
                -0.7156495451927185,
                0,
                0.6984595060348511
            ],
            "translation" : [
                -0.12853993475437164,
                8.536170959472656,
                6.033751964569092
            ]
        },
        {
            "mesh" : 2,
            "name" : "Clear.001",
            "rotation" : [
                0,
                -0.7156495451927185,
                0,
                0.6984595060348511
            ],
            "scale" : [
                0.8033366799354553,
                0.8033366799354553,
                0.8033366799354553
            ],
            "translation" : [
                2.960012435913086,
                2.2481279373168945,
                8.783307075500488
            ]
        },
        {
            "mesh" : 3,
            "name" : "Clear",
            "rotation" : [
                0,
                -0.7156495451927185,
                0,
                0.6984595060348511
            ],
            "scale" : [
                0.6962985396385193,
                0.6962985396385193,
                0.6962985396385193
            ],
            "translation" : [
                -2.938523292541504,
                1.8220235109329224,
                8.90926742553711
            ]
        }
    ],
    "meshes" : [
        {
            "name" : "BezierCircle.001",
            "primitives" : [
                {
                    "attributes" : {
                        "POSITION" : 0,
                        "NORMAL" : 1
                    },
                    "indices" : 2
                }
            ]
        },
        {
            "name" : "Cylinder",
            "primitives" : [
                {
                    "attributes" : {
                        "POSITION" : 3,
                        "NORMAL" : 4,
                        "TEXCOORD_0" : 5
                    },
                    "indices" : 6
                }
            ]
        },
        {
            "name" : "Cylinder.001",
            "primitives" : [
                {
                    "attributes" : {
                        "POSITION" : 7,
                        "NORMAL" : 8,
                        "TEXCOORD_0" : 9
                    },
                    "indices" : 10
                }
            ]
        },
        {
            "name" : "Cylinder.003",
            "primitives" : [
                {
                    "attributes" : {
                        "POSITION" : 11,
                        "NORMAL" : 12,
                        "TEXCOORD_0" : 13
                    },
                    "indices" : 14
                }
            ]
        }
    ],
    "accessors" : [
        {
            "bufferView" : 0,
            "componentType" : 5126,
            "count" : 3456,
            "max" : [
                9.953660011291504,
                1.4869418144226074,
                9.953529357910156
            ],
            "min" : [
                -9.953499794006348,
                -2.22019624710083,
                -9.953493118286133
            ],
            "type" : "VEC3"
        },
        {
            "bufferView" : 1,
            "componentType" : 5126,
            "count" : 3456,
            "type" : "VEC3"
        },
        {
            "bufferView" : 2,
            "componentType" : 5123,
            "count" : 20736,
            "type" : "SCALAR"
        },
        {
            "bufferView" : 3,
            "componentType" : 5126,
            "count" : 128,
            "max" : [
                4.003972053527832,
                -5.879767417907715,
                1
            ],
            "min" : [
                2.929572343826294,
                -7.879767417907715,
                -1
            ],
            "type" : "VEC3"
        },
        {
            "bufferView" : 4,
            "componentType" : 5126,
            "count" : 128,
            "type" : "VEC3"
        },
        {
            "bufferView" : 5,
            "componentType" : 5126,
            "count" : 128,
            "type" : "VEC2"
        },
        {
            "bufferView" : 6,
            "componentType" : 5123,
            "count" : 186,
            "type" : "SCALAR"
        },
        {
            "bufferView" : 7,
            "componentType" : 5126,
            "count" : 128,
            "max" : [
                1.2647126913070679,
                1.0093387365341187,
                0.628486156463623
            ],
            "min" : [
                -0.07054463773965836,
                -0.9850893020629883,
                -1.2634493112564087
            ],
            "type" : "VEC3"
        },
        {
            "bufferView" : 8,
            "componentType" : 5126,
            "count" : 128,
            "type" : "VEC3"
        },
        {
            "bufferView" : 9,
            "componentType" : 5126,
            "count" : 128,
            "type" : "VEC2"
        },
        {
            "bufferView" : 10,
            "componentType" : 5123,
            "count" : 186,
            "type" : "SCALAR"
        },
        {
            "bufferView" : 11,
            "componentType" : 5126,
            "count" : 128,
            "max" : [
                1.2353936433792114,
                1.000000238418579,
                1.2353936433792114
            ],
            "min" : [
                -0.07156200706958771,
                -1,
                -0.6883335113525391
            ],
            "type" : "VEC3"
        },
        {
            "bufferView" : 12,
            "componentType" : 5126,
            "count" : 128,
            "type" : "VEC3"
        },
        {
            "bufferView" : 13,
            "componentType" : 5126,
            "count" : 128,
            "type" : "VEC2"
        },
        {
            "bufferView" : 14,
            "componentType" : 5123,
            "count" : 186,
            "type" : "SCALAR"
        }
    ],
    "bufferViews" : [
        {
            "buffer" : 0,
            "byteLength" : 41472,
            "byteOffset" : 0
        },
        {
            "buffer" : 0,
            "byteLength" : 41472,
            "byteOffset" : 41472
        },
        {
            "buffer" : 0,
            "byteLength" : 41472,
            "byteOffset" : 82944
        },
        {
            "buffer" : 0,
            "byteLength" : 1536,
            "byteOffset" : 124416
        },
        {
            "buffer" : 0,
            "byteLength" : 1536,
            "byteOffset" : 125952
        },
        {
            "buffer" : 0,
            "byteLength" : 1024,
            "byteOffset" : 127488
        },
        {
            "buffer" : 0,
            "byteLength" : 372,
            "byteOffset" : 128512
        },
        {
            "buffer" : 0,
            "byteLength" : 1536,
            "byteOffset" : 128884
        },
        {
            "buffer" : 0,
            "byteLength" : 1536,
            "byteOffset" : 130420
        },
        {
            "buffer" : 0,
            "byteLength" : 1024,
            "byteOffset" : 131956
        },
        {
            "buffer" : 0,
            "byteLength" : 372,
            "byteOffset" : 132980
        },
        {
            "buffer" : 0,
            "byteLength" : 1536,
            "byteOffset" : 133352
        },
        {
            "buffer" : 0,
            "byteLength" : 1536,
            "byteOffset" : 134888
        },
        {
            "buffer" : 0,
            "byteLength" : 1024,
            "byteOffset" : 136424
        },
        {
            "buffer" : 0,
            "byteLength" : 372,
            "byteOffset" : 137448
        }
    ],
    "buffers" : [
        {
            "byteLength" : 137820,
            "uri" : "data:application/octet-stream;base64,"
        }
    ]
}
