{
    "asset" : {
        "generator" : "Khronos glTF Blender I/O v1.5.17",
        "version" : "2.0"
    },
    "scene" : 0,
    "scenes" : [
        {
            "name" : "Scene",
            "nodes" : [
                0
            ]
        }
    ],
    "nodes" : [
        {
            "mesh" : 0,
            "name" : "BezierCircle",
            "rotation" : [
                0,
                -0.7071068286895752,
                0,
                0.7071068286895752
            ],
            "scale" : [
                1,
                1.25,
                1
            ]
        }
    ],
    "meshes" : [
        {
            "name" : "BezierCircle",
            "primitives" : [
                {
                    "attributes" : {
                        "POSITION" : 0,
                        "NORMAL" : 1
                    },
                    "indices" : 2
                }
            ]
        }
    ],
    "accessors" : [
        {
            "bufferView" : 0,
            "componentType" : 5126,
            "count" : 578,
            "max" : [
                10.54332447052002,
                4,
                10
            ],
            "min" : [
                -10,
                0,
                -10
            ],
            "type" : "VEC3"
        },
        {
            "bufferView" : 1,
            "componentType" : 5126,
            "count" : 578,
            "type" : "VEC3"
        },
        {
            "bufferView" : 2,
            "componentType" : 5123,
            "count" : 3456,
            "type" : "SCALAR"
        }
    ],
    "bufferViews" : [
        {
            "buffer" : 0,
            "byteLength" : 6936,
            "byteOffset" : 0
        },
        {
            "buffer" : 0,
            "byteLength" : 6936,
            "byteOffset" : 6936
        },
        {
            "buffer" : 0,
            "byteLength" : 6912,
            "byteOffset" : 13872
        }
    ],
    "buffers" : [
        {
            "byteLength" : 20784,
            "uri" : "data:application/octet-stream;base64,"
        }
    ]
}
